<?xml version="1.0" encoding="utf-8"?>
<!-- Generator: Adobe Illustrator 19.2.1, SVG Export Plug-In . SVG Version: 6.00 Build 0)  -->
<svg version="1.1" id="layer" xmlns="http://www.w3.org/2000/svg" xmlns:xlink="http://www.w3.org/1999/xlink" x="0px" y="0px"
	 viewBox="0 0 652 652" style="enable-background:new 0 0 652 652;" xml:space="preserve">
<style type="text/css">
	.st0{fill:#4D87A0;}
	.st1{fill:#003864;}
</style>
<polygon id="Fill-1" class="st0" points="455.2,222.3 467.2,222.3 520.1,305.1 523.1,300.4 470.2,217.5 445.8,217.5 510.2,319.3 
	513.2,314.6 "/>
<path id="Fill-2" class="st0" d="M38.6,321.9c0-17.6,5.2-34.4,13.7-48.1l-5.2-4.3c-9.9,15-15.5,33.1-15.5,52.4
	c0,5.2,0.4,10.3,1.3,15l6.4-2.1C38.6,330.5,38.6,326.2,38.6,321.9"/>
<polygon id="Fill-4" class="st0" points="246,237.3 254.6,237.3 254.6,307.7 264.9,307.7 270.5,307.7 270.5,303 259.4,303 
	259.4,237.3 359.9,237.3 359.9,232.6 259.4,232.1 259.4,222.3 359.9,222.3 359.9,217.5 254.6,217.5 254.6,232.6 237,232.1 
	237,232.1 246,232.1 "/>
<path id="Fill-8" class="st0" d="M47.6,321.9c0,3.4,0.4,6.9,0.4,10.3l5.6-1.7c-0.4-2.6-0.4-5.6-0.4-8.6c0-14.2,3.9-27.5,10.7-39.1
	l-4.3-3.4C51.9,291.8,47.6,306.4,47.6,321.9"/>
<path id="Fill-10" class="st0" d="M129.7,404.4c23.2,0,43.8-9.4,58.8-24.9l-3.9-3.9c-13.7,14.2-33.5,23.2-54.5,23.2
	c-33.1,0-61.4-21-72.2-50.7l-5.2,1.7C63.9,381.6,94,404.4,129.7,404.4"/>
<path id="Fill-12" class="st0" d="M129.7,245c21,0,39.9,8.6,53.7,22.3l3.9-3.9c-15-14.6-35.2-24.1-58-24.1
	c-23.6,0-45.1,10.3-60.1,26.2l4.3,3.4C88,254.5,107.7,245,129.7,245"/>
<polygon id="Fill-14" class="st0" points="450.9,409.5 450.5,312 420.8,262.6 420.8,271.6 420.8,272.1 430.3,287.5 430.3,409.5 
	435.9,409.5 435.9,296.6 445.8,313.3 445.8,409.5 "/>
<polygon id="Fill-16" class="st1" points="246,410.4 246,237.3 246,232.1 237,232.1 230.6,232.1 230.6,425.4 270.5,425.4 
	275.7,425.4 275.7,410.4 270.5,410.4 "/>
<polygon id="Fill-18" class="st1" points="285.1,293.1 285.1,264.3 374.5,264.3 374.5,222.3 374.5,217.5 374.5,217.5 359.9,217.5 
	359.9,222.3 359.9,232.6 359.9,237.3 359.9,249.7 270.5,249.7 270.5,303 270.5,307.7 275.7,307.7 359.4,307.7 359.4,321 
	359.4,326.2 359.4,337.4 286,337.4 286,337.8 286,354.5 290.7,354.5 374.5,354.5 374.5,342.5 374.5,337.8 374.5,293.1 "/>
<path id="Fill-20" class="st1" d="M129.7,279.8c11.2,0,21.5,4.3,29.6,12l12-12c-11.2-11.2-25.8-17.2-41.7-17.2
	c-32.6,0-59.3,26.6-59.3,59.3s26.6,59.3,59.3,59.3c15.9,0,30.9-6.4,42.1-17.6l0,0l-12.5-12c-8.2,8.2-18.5,12.9-30.1,12.9
	c-23.2,0-42.1-18.9-42.1-42.1S106.9,279.8,129.7,279.8"/>
<path id="Fill-22" class="st1" d="M52.3,273.8l6.9,5.6l4.3,3.4c3-5.2,6.4-9.4,10.3-13.7l-4.3-3.4l-6.9-5.6
	c17.2-18.5,41.2-29.2,66.6-29.2c24.1,0,46.8,9.4,64,26.6l12.5-12.5c-20.6-20.6-47.7-32.2-76.9-32.2c-31.8,0-62.3,14.2-82.9,38.7
	l-8.6,10.3l9.4,7.7L52.3,273.8z"/>
<path id="Fill-25" class="st1" d="M194.5,385L194.5,385c-17.2,17.6-40.4,27.5-64.9,27.5c-19.8,0-38.7-6.4-54.5-18
	c-14.2-10.7-24.9-25.8-30.9-42.1l8.6-2.6l5.2-1.7c-2.1-5.6-3.4-11.6-3.9-17.6l-5.6,1.7l-9,3l-6.4,2.1l-11.2,3l3.9,12.5
	c6.4,21.9,20.2,41.2,38.7,55c18.9,14.2,41.2,21.9,64.9,21.9c29.2,0,56.7-11.6,77.3-32.6L194.5,385z"/>
<polygon id="Fill-28" class="st0" points="519.2,359.7 522.2,364.8 611.1,233.4 604.7,233.4 "/>
<path id="Fill-30" class="st1" d="M611.1,234.3l1.3-2.1L611.1,234.3z"/>
<polygon id="Fill-32" class="st1" points="581.9,217.5 579.8,217.5 523.9,299.1 520.5,303.9 513.2,314.6 510.2,319.3 520.5,335.2 
	590.5,233.4 604.7,233.4 611.1,233.4 612,232.1 615.4,227 615.4,227 621.8,217.5 "/>
<polygon id="Fill-34" class="st1" points="429,217.5 407.5,217.5 408,217.5 511.5,380.3 522.2,364.8 "/>
<polygon id="Fill-36" class="st1" points="430.3,409.5 420.8,409.5 420.8,292.3 420.8,272.1 420.8,271.6 420.8,262.6 413.1,249.3 
	405.8,237.3 405.8,425.4 408,425.4 450.9,425.4 450.9,409.5 "/>
<polygon id="Fill-38" class="st0" points="591.8,284.5 591.8,284.5 591.8,294.4 601.7,279.8 601.7,409.5 606.8,409.5 606.8,272.5 
	617.1,257.5 617.1,409.5 621.8,409.5 621.8,240.7 "/>
<polygon id="Fill-40" class="st1" points="617.1,409.5 606.8,409.5 601.7,409.5 591.8,409.5 591.8,294.4 591.8,284.5 575.9,308.2 
	575.9,425.4 577.2,425.4 621.8,425.4 621.8,409.9 621.8,409.5 "/>
<path class="st0" d="M286,392.8h-10.3v-66.6h83.8V321h-83.8v-13.3H271V321h-16.8v76.4H271v12.9h4.7v-12.9h15v-42.9H286V392.8z
	 M270.5,392.8h-11.6v-66.6h11.6V392.8z"/>
</svg>
