<svg height="133" viewBox="0 0 600 133" width="600" xmlns="http://www.w3.org/2000/svg"><path d="m355.337 39.76c-1.336 0-2.662.064-3.97.183v29.077c1.28-.293 2.598-.466 3.97-.466 9.768 0 17.689 7.921 17.689 17.69s-7.921 17.689-17.689 17.689-17.69-7.921-17.69-17.689v-59.426h-28.793v59.416c0 25.675 20.808 46.483 46.483 46.483s46.483-20.808 46.483-46.483-20.809-46.483-46.483-46.483z" fill="#03a4c1"/><g fill="#3e3a39"><path d="m3.109 45.111h28.858v82.32h-28.858z"/><path d="m126.525 52.858c6.229 6.073 9.339 15.238 9.339 27.486v47.078h-28.858v-42.377c0-11.241-4.509-16.857-13.519-16.857-4.967 0-8.936 1.619-11.927 4.857s-4.482 8.104-4.482 14.58v39.788h-28.858v-82.302h27.486v8.964c3.238-3.339 7.089-5.9 11.543-7.674s9.311-2.662 14.58-2.662c10.226 0 18.449 3.037 24.678 9.11z"/><path d="m183.134 48.148h23.918l-8.57 24.403h-14.589v54.88h-28.857v-54.88h-12.001v-24.403h12.001v-2.076c0-10.025 3.009-17.973 9.036-23.845 6.028-5.872 14.452-8.808 25.291-8.808 3.649 0 7.189.357 10.628 1.061 3.439.713 6.275 1.774 8.507 3.192l-7.135 20.351c-2.835-1.619-5.726-2.433-8.662-2.433s-5.387.915-7.061 2.735-2.506 4.509-2.506 8.049v1.775z"/><path d="m567.036 127.431-14.735-21.568-15.797 21.568h-31.29l31.29-41.16-30.375-41.16h32.507l14.579 20.809 15.184-20.809h30.531l-30.376 40.099 31.437 42.221z"/><path d="m252.822 39.824c-25.656 0-46.456 20.799-46.456 46.456s20.8 46.456 46.456 46.456 46.456-20.8 46.456-46.456-20.8-46.456-46.456-46.456zm0 64.127c-9.76 0-17.671-7.912-17.671-17.671s7.911-17.671 17.671-17.671 17.671 7.912 17.671 17.671-7.912 17.671-17.671 17.671z"/></g><path d="m17.671 35.342c9.759 0 17.671-7.912 17.671-17.671s-7.911-17.671-17.671-17.671-17.671 7.912-17.671 17.671 7.912 17.671 17.671 17.671z" fill="#03a4c1"/><path d="m457.789 39.824c-25.657 0-46.456 20.799-46.456 46.456s20.799 46.456 46.456 46.456 46.455-20.8 46.455-46.456-20.799-46.456-46.455-46.456zm0 64.127c-9.76 0-17.672-7.912-17.672-17.671s7.912-17.671 17.672-17.671 17.671 7.912 17.671 17.671-7.912 17.671-17.671 17.671z" fill="#3e3a39"/></svg>