<?xml version="1.0" encoding="UTF-8"?>
<!-- Generator: Adobe Illustrator 19.0.0, SVG Export Plug-In . SVG Version: 6.00 Build 0)  -->
<svg version="1.1" id="Calque_1" xmlns="http://www.w3.org/2000/svg" xmlns:xlink="http://www.w3.org/1999/xlink" x="0px" y="0px" viewBox="0 0 412 205" style="enable-background:new 0 0 412 205;" xml:space="preserve">
<style type="text/css">
	.st0{fill:#9E9D9D;}
	.st1{fill:#B3142F;}
	.st2{fill:#B3132E;}
	.st3{fill:#B41731;}
</style>
<path class="st0" d="M133.64,162.36c-1.71,1.35-1.41,3.1-1.74,4.66c-0.57,2.61-2.15,4.23-4.93,3.87c-3.08-0.4-4.23-2.59-3.79-5.42  c0.86-5.58,1.9-11.14,2.95-16.68c0.56-2.96,2.55-4.28,5.45-3.83c5.74,0.88,11.47,1.88,17.19,2.94c2.72,0.5,4.1,2.31,3.53,5.04  c-0.56,2.66-2.49,3.85-5.19,3.48c-1.94-0.27-3.84-0.95-6.22,0.06c4.38,7.17,10.3,12.63,16.69,17.62  c40.58,31.68,100.25,20.33,126.64-24.04c0.43-0.72,0.95-1.38,1.31-2.13c1.43-2.94,3.89-3.92,6.6-2.46c3.03,1.63,2.37,4.46,0.99,6.97  c-2.98,5.41-6.42,10.55-10.51,15.16c-20.87,23.51-47.14,35.06-78.48,33.1c-28.14-1.76-51.24-14.25-68.92-36.42  C134.69,163.63,134.18,163.01,133.64,162.36z"/>
<path class="st0" d="M284.75,47.7c1.59-1.91,1.03-3.72,1.57-5.27c0.81-2.29,2.24-3.75,4.83-3.38c2.5,0.36,4.1,1.99,3.74,4.45  c-0.89,6.24-1.96,12.46-3.3,18.62c-0.53,2.43-2.8,3.24-5.18,2.84c-5.73-0.94-11.46-1.92-17.15-3.07c-2.75-0.56-3.79-2.64-3.26-5.29  c0.52-2.6,2.59-3.4,4.91-3.18c1.95,0.18,3.86,0.94,6.58,0.18c-4.03-6.56-9.23-11.64-14.86-16.16  c-34.59-27.75-81.2-26.19-114.05,3.79c-6.18,5.63-11.2,12.3-15.35,19.56c-1.73,3.03-3.54,5.76-7.29,3.45  c-3.47-2.14-2-5.19-0.39-7.87c15.2-25.24,37.26-41.2,66.26-46.01c32.91-5.46,61.44,4.39,84.98,28.17  C279.58,41.37,282.01,44.54,284.75,47.7z"/>
<path class="st1" d="M236.01,86.06c3.73-1.82,7.25-2.59,10.91-2.42c7.99,0.38,13.54,4.38,16.22,11.82  c3.33,9.24,2.65,18.24-4.44,25.51c-5.65,5.8-12.88,6.43-20.31,3.43c-1.74-0.7-3.03-0.96-4.99-0.12c-3.45,1.48-6.13-0.22-6.17-3.99  c-0.19-14.8-0.09-29.6-0.07-44.41c0-2.79,1.52-4.39,4.3-4.4c3.01-0.01,4.57,1.62,4.55,4.69C236,79.31,236.01,82.43,236.01,86.06z   M255.99,105.01c0.05-7.27-3.08-11.75-8.75-12.53c-4.81-0.66-8.89,2.13-10.51,7.18c-2.21,6.89,0.08,14.18,5.22,16.63  C249.12,119.71,255.93,114.24,255.99,105.01z"/>
<path class="st2" d="M133.84,126.02c-12.33,0.05-20.87-11.7-18.45-25.38c1.95-10.98,9.41-17.57,19.31-17.05  c10.42,0.55,17.59,8.29,18.16,19.51c0.21,4.21-1.68,6.15-5.89,6.1c-6.33-0.08-12.66,0.1-18.98-0.06c-3.74-0.1-3.41,1.41-1.93,3.78  c2.77,4.43,8.86,5.76,13.6,2.48c3.09-2.14,5.94-2.99,8.05,0.52c2.13,3.54-0.9,5.52-3.44,7.11C141.11,125,137.59,126,133.84,126.02z   M133.5,100.51c2.31,0,4.63-0.07,6.94,0.02c2.77,0.1,3.14-0.96,1.93-3.26c-2.62-4.97-9.57-6.51-14.09-2.99  c-1.73,1.35-3.66,3.23-3.1,5.27c0.56,2.02,3.18,0.67,4.86,0.93C131.16,100.66,132.34,100.52,133.5,100.51z"/>
<path class="st3" d="M380.21,99.69c4.34-2.8,6.91-6.28,10.03-9.14c1.59-1.46,2.99-3.17,4.74-4.39c1.99-1.38,4.33-2.11,6.21,0.29  c1.66,2.13,1.45,4.36-0.38,6.3c-2.05,2.18-4.1,4.38-6.36,6.34c-2.1,1.82-2.54,3.32-0.72,5.77c2.77,3.72,5.1,7.77,7.56,11.72  c1.59,2.55,2.74,5.24-0.59,7.33c-3.24,2.04-5.23,0.15-6.89-2.5c-1.85-2.95-3.64-5.96-5.68-8.78c-0.97-1.34-1.35-4.32-3.39-3.47  c-2.08,0.86-4.29,2.7-4.5,5.52c-0.14,1.99-0.06,3.99-0.04,5.99c0.03,2.48-1.56,3.73-3.64,4.02c-2.38,0.33-4.16-0.87-4.8-3.34  c-0.2-0.8-0.33-1.64-0.33-2.45c-0.02-13.98-0.03-27.95,0.04-41.93c0.01-1.29,0.26-2.76,0.93-3.81c1.09-1.71,2.96-1.97,4.89-1.51  c2.43,0.58,2.93,2.36,2.92,4.56C380.19,83.81,380.21,91.4,380.21,99.69z"/>
<path class="st2" d="M360.01,104.53c0.06,15.13-11.14,24.56-24.49,20.62c-10.26-3.03-15.73-15.22-12.32-27.5  c2.93-10.57,12.58-16.17,23.15-13.44C354.56,86.33,359.97,94.37,360.01,104.53z M351.15,104.93c0.05-7.53-3.86-12.53-9.85-12.59  c-5.97-0.07-10.23,5.03-10.28,12.32c-0.05,7.33,4.02,12.41,10.01,12.48C347.22,117.21,351.11,112.53,351.15,104.93z"/>
<path class="st2" d="M274.82,104.76c-0.02-14.12,9.26-22.79,22.29-20.83c8.71,1.31,14.44,8.55,15.35,19.41  c1.29,15.44-11.52,26.42-25.23,21.64C279.46,122.27,274.83,114.73,274.82,104.76z M283.55,104.94c0.1,7.53,4.08,12.28,10.23,12.2  c5.96-0.08,10.1-5.25,10.03-12.52c-0.07-7.16-4.54-12.49-10.35-12.35C287.55,92.42,283.46,97.65,283.55,104.94z"/>
<path class="st1" d="M30.15,104.66c0-4.82-0.06-9.65,0.02-14.47c0.06-4.01,2.24-6.08,6.1-4.9c2.07,0.63,3.48-0.04,5.14-0.61  c11.26-3.88,22.54,3.52,23.09,15.39c0.3,6.47,0.03,12.97,0.07,19.46c0.02,3.16-1.34,5.31-4.62,5.19c-2.99-0.1-4.21-2.16-4.17-5.12  c0.07-5.82,0.08-11.65,0-17.47c-0.08-5.95-3.47-9.86-8.35-9.83c-4.9,0.04-8.32,3.97-8.39,9.83c-0.07,5.82-0.08,11.65,0.01,17.47  c0.05,2.95-1.07,5.03-4.08,5.16c-3.26,0.13-4.76-2.03-4.79-5.13C30.1,114.64,30.15,109.65,30.15,104.66z"/>
<path class="st1" d="M173.46,126.01c-2.22-0.03-6.38-1.03-10.04-3.58c-2.51-1.74-4.39-4.07-2.39-7.07c1.94-2.9,4.54-2.75,7.22-0.43  c3.03,2.64,6.78,2.42,10.46,1.98c1.71-0.2,3.29-0.89,3.54-2.91c0.27-2.13-0.84-3.52-2.78-4.16c-3-0.97-6.06-1.76-9.05-2.73  c-6.55-2.13-9.76-6.5-9.25-12.44c0.52-6.11,4.7-9.93,11.73-10.79c4.71-0.57,9.29-0.19,13.62,1.9c2.81,1.35,4.89,3.29,3.28,6.65  c-1.47,3.07-4.05,3-6.77,1.56c-3.23-1.7-6.62-2-10.15-1.17c-1.4,0.33-2.59,0.97-2.75,2.47c-0.16,1.5,0.81,2.53,2.17,3  c2.35,0.81,4.73,1.54,7.11,2.22c9.38,2.68,12.74,7.03,11.64,15.1C190.16,122.16,184.4,126.05,173.46,126.01z"/>
<path class="st1" d="M90.45,108.63c2.89-7.07,5.53-13.33,8-19.66c1.2-3.08,3.13-5.01,6.42-3.7c3.46,1.38,3.04,4.3,1.85,7.17  c-3.88,9.35-7.77,18.7-11.64,28.05c-0.93,2.24-2.06,4.41-4.87,4.24c-2.43-0.14-3.56-1.98-4.44-4.14  c-3.88-9.53-7.84-19.03-11.87-28.5c-1.21-2.84-1.31-5.4,1.8-6.72c3.24-1.37,5.24,0.25,6.49,3.42  C84.69,95.11,87.4,101.35,90.45,108.63z"/>
<path class="st1" d="M201.99,105.42c0-2.49,0.01-4.99-0.01-7.48c-0.02-2.09,0.34-4.01-2.42-5.26c-2.47-1.12-2.77-4.81-0.88-5.9  c4.4-2.55,3.17-6.27,3.28-9.81c0.05-1.69,0.02-3.35,1.47-4.55c2.65-2.19,6.71-0.73,7.3,2.78c0.33,1.94,0.19,3.98,0.1,5.97  c-0.11,2.22,0.1,3.83,3,3.86c2.67,0.03,3.68,2.04,3.66,4.44c-0.02,2.28-1.25,3.96-3.61,3.95c-2.88-0.01-3.11,1.53-3.06,3.8  c0.11,4.98,0.08,9.97,0.02,14.96c-0.03,2.21,0.16,3.75,3.07,3.94c2.78,0.19,3.92,2.38,3.49,5.04c-0.45,2.77-2.52,3.71-5.12,3.68  c-6-0.07-9.93-3.8-10.26-9.94C201.85,111.75,201.99,108.58,201.99,105.42z"/>
<path class="st1" d="M17.01,104.95c0,4.83-0.06,9.65,0.02,14.48c0.05,3.21-1.37,5.33-4.56,5.27c-2.92-0.05-4.32-2.15-4.32-5.08  c0-9.98-0.04-19.97,0.03-29.95c0.02-2.9,1.46-4.78,4.59-4.68c3.14,0.1,4.27,2.06,4.26,4.98C16.99,94.97,17.02,99.96,17.01,104.95z"/>
<path class="st3" d="M12.79,80.09c-3.9-0.3-6.3-2.19-6.63-6.13c-0.31-3.72,2.62-6.76,6.35-6.82c3.77-0.06,6.76,2.85,6.59,6.59  C18.93,77.7,16.54,79.62,12.79,80.09z"/>
</svg>